<?xml version="1.0" standalone="no"?>
<!DOCTYPE svg PUBLIC "-//W3C//DTD SVG 20010904//EN"
 "http://www.w3.org/TR/2001/REC-SVG-20010904/DTD/svg10.dtd">
<svg version="1.0" xmlns="http://www.w3.org/2000/svg"
 width="587.000000pt" height="587.000000pt" viewBox="0 0 587.000000 587.000000"
 preserveAspectRatio="xMidYMid meet">

<g transform="translate(0.000000,587.000000) scale(0.100000,-0.100000)"
fill="#000000" stroke="none">
<path d="M1235 4154 c-173 -27 -279 -81 -332 -171 -24 -41 -28 -59 -28 -123 0
-83 24 -156 81 -246 78 -124 296 -355 395 -417 16 -11 29 -23 29 -28 0 -5 1
-12 3 -16 1 -4 -11 -10 -28 -13 l-30 -6 47 -22 c26 -12 50 -22 53 -22 4 0 30
-16 59 -35 87 -58 111 -124 98 -271 -6 -64 -5 -81 5 -77 7 3 13 10 13 17 0 37
95 196 117 196 3 0 48 -27 100 -60 51 -33 96 -60 99 -60 3 0 24 -13 47 -28 58
-39 245 -142 385 -212 114 -57 270 -130 277 -130 2 0 42 -18 89 -40 47 -22 88
-40 91 -40 2 0 28 -11 57 -24 29 -13 73 -31 98 -41 25 -10 54 -21 65 -26 11
-4 70 -24 130 -44 61 -20 119 -40 130 -45 71 -28 361 -110 505 -143 288 -66
443 -87 650 -87 261 0 404 41 496 143 108 121 67 311 -116 532 -32 39 -226
233 -265 265 -169 140 -419 319 -556 398 -292 169 -309 178 -309 153 0 -11 35
-34 120 -79 36 -19 77 -43 92 -54 14 -10 29 -18 33 -18 25 0 496 -330 580
-407 11 -10 48 -42 82 -71 64 -55 202 -210 266 -299 122 -169 134 -324 34
-417 -38 -34 -131 -78 -207 -97 -95 -24 -436 -18 -600 10 -115 19 -319 63
-425 91 -131 35 -250 69 -280 80 -11 4 -58 20 -105 34 -115 37 -275 94 -330
118 -96 43 -108 48 -114 48 -3 0 -33 13 -68 29 -35 16 -79 36 -98 44 -167 73
-356 165 -478 234 -52 29 -95 53 -98 53 -2 0 -28 16 -58 35 -30 19 -57 35 -60
35 -3 0 -30 15 -59 34 -29 19 -73 45 -97 59 -48 27 -69 51 -56 64 4 4 64 7
132 6 70 -1 124 3 124 8 0 5 -6 9 -14 9 -26 0 -146 61 -182 92 -61 54 -69 78
-67 212 2 131 -1 133 -46 26 -47 -110 -118 -170 -203 -170 -38 0 -53 8 -133
73 -115 92 -259 238 -336 340 -190 251 -184 421 17 517 95 46 183 60 372 60
156 0 329 -18 482 -50 25 -5 68 -14 95 -19 71 -15 217 -50 285 -69 143 -40
202 -59 330 -103 80 -27 148 -49 153 -49 19 0 4 26 -20 36 -46 19 -300 101
-378 123 -22 6 -71 20 -110 30 -94 27 -229 60 -290 71 -27 5 -90 16 -140 25
-128 23 -347 45 -435 44 -41 -1 -115 -7 -165 -15z"/>
<path d="M3160 3792 c8 -47 17 -62 36 -62 19 0 18 13 -6 60 -26 51 -39 51 -30
2z"/>
<path d="M3295 3715 c-22 -8 -34 -14 -27 -14 6 -1 12 -11 13 -23 0 -13 3 -17
6 -10 2 6 10 12 16 12 7 0 30 11 52 25 l40 24 -30 0 c-16 -1 -48 -7 -70 -14z"/>
<path d="M3093 3639 c-71 -35 -53 -52 23 -23 29 11 41 21 37 30 -7 18 -10 18
-60 -7z"/>
<path d="M3261 3634 c0 -11 3 -14 6 -6 3 7 2 16 -1 19 -3 4 -6 -2 -5 -13z"/>
<path d="M3230 3590 c0 -17 38 -88 51 -96 9 -5 10 0 5 17 -4 13 -9 39 -13 57
-4 22 -11 32 -24 32 -11 0 -19 -5 -19 -10z"/>
<path d="M3085 2920 c-20 -16 -46 -32 -57 -36 -25 -8 -106 4 -113 17 -4 5 -13
9 -22 9 -11 0 -6 -11 17 -37 52 -58 60 -86 44 -152 -7 -31 -11 -57 -10 -58 1
-2 19 13 40 31 44 41 81 51 133 37 63 -18 70 -14 36 22 -53 54 -57 78 -28 175
9 29 5 28 -40 -8z"/>
<path d="M1921 2446 c-7 -17 -11 -45 -9 -63 3 -31 4 -33 22 -20 17 12 18 20 9
63 l-10 49 -12 -29z"/>
<path d="M1845 2305 c-5 -2 -28 -7 -50 -10 -33 -6 -37 -9 -20 -15 39 -16 84
-11 95 10 11 20 3 25 -25 15z"/>
<path d="M2006 2295 c6 -15 58 -21 88 -9 29 11 5 24 -44 24 -40 0 -48 -3 -44
-15z"/>
<path d="M1917 2225 c2 -11 6 -41 10 -67 7 -58 18 -54 26 9 3 26 9 57 12 68 6
19 6 19 -8 3 -17 -21 -34 -23 -40 -5 -2 6 -2 3 0 -8z"/>
</g>
</svg>
